<svg xmlns="http://www.w3.org/2000/svg" viewBox="0 0 166 66.73"><defs><style>.a{fill:#595757;}.b{fill:#15983f;}.c{fill:#3e3a39;}</style></defs><path class="a" d="M20.72,44.84a8.38,8.38,0,0,0-7-4.21c-4.72,0-8.1,5-8.1,12,0,6.18,3.84,11,8.79,11a10.53,10.53,0,0,0,7.66-3.11l1.11,1.59a12.65,12.65,0,0,1-9,3.55C5.39,65.66,0,60.77,0,52.78,0,44.45,5.45,39,13.67,39c4.1,0,6.72.88,9.47,3.11Z"/><path class="a" d="M39.05,65.66c-8.36,0-13.53-5.15-13.53-13.47C25.52,44.29,31,39,39.05,39s13.59,5.34,13.59,13.21C52.64,60.58,47.52,65.66,39.05,65.66Zm0-25c-4.65,0-8,4.83-8,11.57,0,7,3.25,11.75,8,11.75s8-4.7,8-11.75C47,45.59,43.65,40.66,39.05,40.66Z"/><path class="a" d="M69,65.34H63.7L54,39.34H59.6l8.46,23.55,8-22.32a2.89,2.89,0,0,0,.16-1.23h2.36Z"/><path class="a" d="M93.68,39.3V41H90.09V63.66h3.63v1.68H81.23V63.66h3.64V41H81.23V39.3Z"/><path class="a" d="M108.05,39.3a17.8,17.8,0,0,1,7.34,1.43,12.65,12.65,0,0,1,6.86,11.66c0,5.5-2.14,9.61-6,11.56-1.9.94-4.45,1.39-8,1.39H98v-26Zm-.4,24.39c6.16,0,9-3.6,9-11.24,0-4.5-1.18-8-3.28-9.75a9.24,9.24,0,0,0-5.71-1.7H103V63.69Z"/><path class="a" d="M133.54,66V41.61l-5.84,5.32-2-4.1a24.8,24.8,0,0,0,8.65-4.14h4.46V66Z"/><path class="a" d="M148.69,64.26a12.1,12.1,0,0,0,9.11-3.73,12.24,12.24,0,0,0,2.68-6.14,7.79,7.79,0,0,1-6.22,2.54c-5.83,0-9.53-3.42-9.53-8.78,0-6,4.05-9.8,10.42-9.8,6.8,0,10.85,4.38,10.85,11.53,0,5-1.58,9.09-4.73,12.14-2.86,2.75-6.63,4.24-12.05,4.71l-1-2.47ZM160.78,49.2c0-5.52-2.2-9.15-5.53-9.15s-5.45,3.08-5.45,8c0,4.2,2.12,6.75,5.6,6.75a5.91,5.91,0,0,0,4.25-1.87,7,7,0,0,0,1.1-1.59Z"/><path class="b" d="M60.33,30.75c1.11-3.74-.6-7.72-2.27-11.26l-2.34-5a5.58,5.58,0,0,0-1.35-2c-.54-.43-1.22-.65-1.78-1.06-2.36-1.75-1.47-6.16-4-7.58a4.51,4.51,0,0,1-2,1.62c-.68-1.69-3.15-.8-4.9-.34a6.52,6.52,0,0,1-6.22-1.74C34.75,2.63,34,1.6,33,1.61a7.26,7.26,0,0,0-2,.72C28.77,3,26.81.57,24.51.09c-2.12-.45-4.29.92-5.45,2.75A16,16,0,0,0,17.19,9l-4,.73A54,54,0,0,1,2.64,15.68C-5,18.92,6,26.43,9.51,27.33c3.19-3.38,8.71-2.43,13.2-1.22,3,.8,6,1.63,8.45,3.44a22.45,22.45,0,0,0,2.65,1.9c2.79,1.4,6.23.2,8.76-1.64a2.06,2.06,0,0,1-.7,2.09c-.12.09,1,.09,1,.72,1.8-.25,3.36-1.33,5.06-2s3.89-.76,5.07.62l.81-2.19A24.61,24.61,0,0,1,60.27,31,.57.57,0,0,0,60.33,30.75Z"/><path class="c" d="M67.45,23.62c.8-.16,1.72-.33,3.3-.72V14.15H67.89V10.88h2.86V4.39H74.1v6.49h2.22v3.27H74.1V22c1-.33,1.47-.47,2.13-.72l.17,3.16a60.14,60.14,0,0,1-8.51,2.71ZM78,15.09l-1.39-2.83c1.08-.3,3.85-1.11,5.21-2.82H76.76v-3H83a14.81,14.81,0,0,0,.23-2.3h3.49a12,12,0,0,1-.28,2.3h7.12v3h-5c1.85,1.88,4.68,2.41,5.82,2.63l-1.5,3H94V18H92.47v9.86c0,2.33-1.71,2.55-3.18,2.55H85.05l-.75-3.3H77.43V19.52h9.81v7.6c1.63,0,1.8,0,1.8-1.22V18H76.21V15.09Zm14.63,0c-5.18-1.77-6.62-4-7.43-5.24a12.36,12.36,0,0,1-6.9,5.24Zm-12.25,7V24.5h3.85V22.07Z"/><path class="c" d="M104.56,5.22H128.7v3.3H118.19V15h9.23v3.22h-9.23v8.09h11.34V29.6H103.59V26.26h11.06V18.17h-8.9V15h8.9V8.52H104.56ZM123,18.53a24.11,24.11,0,0,1,3.8,5.68l-3,1.79a38.67,38.67,0,0,0-3.57-5.79Z"/><path class="c" d="M148.29,24.82a18.91,18.91,0,0,1-7.43,5.46l-2.13-3.05c4-1.47,5.35-2.66,6.73-4.1Zm2.08,5.68V23H140.25V5.81h3.44V19.88H165V23H153.92v7.5ZM145.49,5.06h17.65v13.6H145.49Zm3.27,2.55V9.1h11.11V7.61Zm0,3.57v1.5h11.11v-1.5Zm0,3.52v1.61h11.11V14.7Zm14.72,15.49a22.14,22.14,0,0,1-7.43-5.46L158.93,23a18.56,18.56,0,0,0,6.62,4.12Z"/><path class="b" d="M67.45,23.62c.8-.16,1.72-.33,3.3-.72V14.15H67.89V10.88h2.86V4.39H74.1v6.49h2.22v3.27H74.1V22c1-.33,1.47-.47,2.13-.72l.17,3.16a60.14,60.14,0,0,1-8.51,2.71ZM78,15.09l-1.39-2.83c1.08-.3,3.85-1.11,5.21-2.82H76.76v-3H83a14.81,14.81,0,0,0,.23-2.3h3.49a12,12,0,0,1-.28,2.3h7.12v3h-5c1.85,1.88,4.68,2.41,5.82,2.63l-1.5,3H94V18H92.47v9.86c0,2.33-1.71,2.55-3.18,2.55H85.05l-.75-3.3H77.43V19.52h9.81v7.6c1.63,0,1.8,0,1.8-1.22V18H76.21V15.09Zm14.63,0c-5.18-1.77-6.62-4-7.43-5.24a12.36,12.36,0,0,1-6.9,5.24Zm-12.25,7V24.5h3.85V22.07Z"/><path class="b" d="M104.56,5.22H128.7v3.3H118.19V15h9.23v3.22h-9.23v8.09h11.34V29.6H103.59V26.26h11.06V18.17h-8.9V15h8.9V8.52H104.56ZM123,18.53a24.11,24.11,0,0,1,3.8,5.68l-3,1.79a38.67,38.67,0,0,0-3.57-5.79Z"/><path class="b" d="M148.29,24.82a18.91,18.91,0,0,1-7.43,5.46l-2.13-3.05c4-1.47,5.35-2.66,6.73-4.1Zm2.08,5.68V23H140.25V5.81h3.44V19.88H165V23H153.92v7.5ZM145.49,5.06h17.65v13.6H145.49Zm3.27,2.55V9.1h11.11V7.61Zm0,3.57v1.5h11.11v-1.5Zm0,3.52v1.61h11.11V14.7Zm14.72,15.49a22.14,22.14,0,0,1-7.43-5.46L158.93,23a18.56,18.56,0,0,0,6.62,4.12Z"/></svg>